<svg width="150.000000" height="150.000000" viewBox="0 0 150 150" fill="none" xmlns="http://www.w3.org/2000/svg" xmlns:xlink="http://www.w3.org/1999/xlink">
	<desc>
			Created with Pixso.
	</desc>
	<defs>
		<clipPath id="clip2_17">
			<rect id="pluginIcon.svg" width="34.000000" height="34.000000" transform="translate(30.000000 46.000000)" fill="white" fill-opacity="0"/>
		</clipPath>
		<clipPath id="clip2_7">
			<rect id="pluginIcon" width="150.000000" height="150.000000" fill="white" fill-opacity="0"/>
		</clipPath>
	</defs>
	<g clip-path="url(#clip2_7)">
		<path id="path" d="M100.07 149.41C99.72 149.41 99.37 149.29 99.02 149.17L75 137.22L50.97 149.17C50.39 149.41 49.68 149.53 49.1 149.29C48.51 149.06 48.04 148.59 47.69 148L36.91 123.16L11.01 116.6C10.42 116.48 9.84 116.01 9.6 115.54C9.25 114.96 9.25 114.37 9.37 113.78L16.87 87.65L1.05 65.74C0.7 65.27 0.58 64.57 0.7 63.98C0.82 63.39 1.17 62.81 1.64 62.46L23.9 47.34L25.66 20.27C25.66 19.68 26.01 18.98 26.48 18.63C26.95 18.16 27.65 18.04 28.24 18.04L54.84 20.97L73.24 1.28C74.17 0.35 75.82 0.35 76.64 1.28L95.15 20.85L121.75 17.92C122.34 17.81 123.04 18.04 123.51 18.51C123.98 18.98 124.33 19.57 124.33 20.15L126.09 47.22L148.35 62.34C148.82 62.69 149.29 63.28 149.29 63.86C149.41 64.45 149.29 65.15 148.94 65.62L133.12 87.53L140.62 113.67C140.74 114.25 140.74 114.96 140.39 115.43C140.03 116.01 139.57 116.36 138.98 116.48L112.96 122.93L102.18 147.77C101.95 148.35 101.48 148.82 100.78 149.06C100.54 149.29 100.31 149.41 100.07 149.41ZM14.53 112.73L39.25 118.94C39.96 119.18 40.54 119.64 40.89 120.23L51.21 143.9L74.06 132.53C74.76 132.18 75.46 132.18 76.17 132.53L99.02 143.9L109.33 120.23C109.57 119.53 110.15 119.06 110.85 118.94L135.58 112.73L128.43 87.89C128.2 87.18 128.32 86.48 128.78 85.89L143.9 65.03L122.69 50.62C122.1 50.27 121.75 49.57 121.64 48.86L120 23.08L94.68 25.89C93.98 26.01 93.28 25.66 92.69 25.19L75 6.32L57.42 24.96C56.95 25.54 56.25 25.78 55.42 25.66L30.11 22.85L28.47 48.63C28.47 49.33 28 50.03 27.42 50.39L6.21 64.92L21.32 85.78C21.79 86.36 21.91 87.07 21.67 87.77L14.53 112.73Z" fill="#07A3F8" fill-opacity="1.000000" fill-rule="nonzero"/>
		<path id="ARMS" d="M105.65 38.58C109.18 40.7 110.41 45.45 107.42 50.43C105.68 53.32 102.82 55.52 99.54 56.41L98.06 52.15C100.41 51.46 102.6 50 103.74 48.11C105.09 45.86 104.85 44.08 103.33 43.17C101.73 42.21 100.44 43.23 98.47 44.66L95.51 46.81C93.29 48.45 90.24 49.59 87.09 47.7C83.56 45.58 82.71 40.86 85.34 36.49C86.84 33.98 89.34 32.07 92.17 31.39L93.57 35.2C91.6 35.89 90.1 36.94 89.04 38.71C87.9 40.61 88.02 42.31 89.45 43.17C90.99 44.1 92.46 42.92 94.29 41.52L97.19 39.41C99.84 37.43 102.54 36.71 105.65 38.58ZM65.98 118.47L63.36 122.84L45.91 102.96L48.96 97.89L74.72 103.93L72 108.45L65.56 106.64L61.36 113.63L65.98 118.47ZM78.83 97.08L76.24 101.39L54.65 88.42L59.17 80.9C61.88 76.38 65.63 73.76 70.59 76.74C73.82 78.68 74.86 81.52 74.33 84.57L86.19 84.84L83.3 89.65L72.48 89.17L70.67 92.18L78.83 97.08ZM90.52 77.64L88.19 81.52L66.59 68.54L69.46 63.77L81.78 66.16C83.4 66.51 85.07 66.96 86.71 67.34L86.79 67.2C85.7 65.9 84.51 64.67 83.44 63.39L75.48 53.74L78.36 48.96L99.95 61.93L97.59 65.87L88.58 60.46C86.55 59.23 83.73 57.11 81.83 55.65L81.75 55.79L85.77 60.59L92.84 69.36L91.35 71.83L80.27 69.74L74.16 68.41L74.1 68.53C76.26 69.55 79.47 71 81.51 72.23L90.52 77.64ZM50.64 102.55C52.66 104.52 54.73 106.64 56.59 108.63L58.56 110.68L61.65 105.55L58.9 104.78C56.26 104.1 53.42 103.19 50.73 102.4L50.64 102.55ZM60.68 86.17L67.27 90.13L68.95 87.33C70.61 84.56 70.37 82.32 68.06 80.93C65.74 79.54 64.02 80.61 62.36 83.37L60.68 86.17Z" fill="#07A3F8" fill-opacity="1.000000" fill-rule="evenodd"/>
		<g clip-path="url(#clip2_17)">
			<path id="path" d="M34.34 70.9C34.18 70.9 34.02 70.88 33.86 70.83C33.71 70.78 33.56 70.72 33.43 70.63C33.29 70.54 33.18 70.43 33.07 70.31C32.97 70.18 32.89 70.04 32.83 69.89C32.76 69.75 32.72 69.59 32.71 69.43C32.69 69.27 32.7 69.11 32.73 68.95C32.76 68.79 32.82 68.64 32.9 68.5C32.97 68.36 33.07 68.23 33.18 68.11L35.48 65.82C35.55 65.73 35.63 65.66 35.72 65.59C35.81 65.52 35.9 65.46 36.01 65.41C36.11 65.36 36.21 65.33 36.32 65.3C36.43 65.27 36.54 65.26 36.65 65.25C36.76 65.25 36.87 65.25 36.99 65.27C37.1 65.29 37.2 65.32 37.31 65.36C37.41 65.4 37.51 65.46 37.61 65.52C37.7 65.58 37.79 65.65 37.86 65.73C37.94 65.81 38.01 65.89 38.08 65.99C38.14 66.08 38.19 66.18 38.23 66.28C38.27 66.39 38.3 66.5 38.32 66.61C38.34 66.72 38.34 66.83 38.34 66.94C38.34 67.05 38.32 67.16 38.29 67.27C38.27 67.38 38.23 67.49 38.18 67.59C38.13 67.69 38.07 67.78 38 67.87C37.93 67.96 37.86 68.04 37.77 68.11L35.48 70.41C35.33 70.56 35.15 70.68 34.96 70.77C34.76 70.85 34.55 70.9 34.34 70.9Z" fill="#218EBF" fill-opacity="1.000000" fill-rule="nonzero"/>
			<path id="path" d="M37.24 78.97C37.07 78.97 36.92 78.95 36.76 78.9C36.61 78.86 36.46 78.79 36.33 78.7C36.19 78.61 36.07 78.5 35.97 78.38C35.87 78.25 35.78 78.12 35.72 77.97C35.66 77.82 35.62 77.66 35.61 77.5C35.59 77.34 35.6 77.18 35.63 77.02C35.66 76.86 35.72 76.71 35.79 76.57C35.87 76.43 35.97 76.3 36.08 76.19L38.37 73.89C38.45 73.83 38.53 73.77 38.62 73.72C38.71 73.67 38.8 73.63 38.9 73.59C38.99 73.56 39.09 73.53 39.19 73.52C39.29 73.5 39.39 73.5 39.5 73.5C39.6 73.51 39.7 73.52 39.8 73.54C39.9 73.57 39.99 73.6 40.09 73.64C40.18 73.68 40.27 73.73 40.35 73.78C40.43 73.84 40.51 73.91 40.58 73.98C40.66 74.05 40.72 74.13 40.78 74.21C40.84 74.3 40.88 74.38 40.93 74.48C40.97 74.57 41 74.67 41.02 74.77C41.04 74.86 41.06 74.96 41.06 75.07C41.06 75.17 41.06 75.27 41.04 75.37C41.03 75.47 41 75.57 40.97 75.66C40.94 75.76 40.9 75.85 40.84 75.94C40.79 76.03 40.74 76.11 40.67 76.19L38.37 78.48C38.22 78.64 38.05 78.76 37.85 78.84C37.66 78.92 37.45 78.97 37.24 78.97ZM30.72 62.01C30.67 61.95 30.61 61.9 30.56 61.83C30.51 61.77 30.47 61.71 30.42 61.64C30.38 61.57 30.34 61.51 30.3 61.44C30.26 61.37 30.23 61.29 30.2 61.22C30.17 61.15 30.14 61.07 30.12 60.99C30.09 60.92 30.07 60.84 30.06 60.76C30.04 60.68 30.03 60.6 30.02 60.53C30.01 60.45 30.01 60.37 30.01 60.29C30.01 60.21 30.01 60.13 30.02 60.05C30.03 59.97 30.04 59.89 30.06 59.81C30.07 59.73 30.09 59.65 30.12 59.58C30.14 59.5 30.17 59.43 30.2 59.35C30.23 59.28 30.26 59.21 30.3 59.14C30.34 59.07 30.38 59 30.42 58.93C30.47 58.86 30.51 58.8 30.56 58.74C30.61 58.68 30.67 58.62 30.72 58.56L31.88 57.4C32.19 57.09 32.54 56.84 32.93 56.64C33.33 56.44 33.74 56.31 34.18 56.25L40.9 55.29L44.95 51.24C45.36 50.82 45.8 50.43 46.25 50.05C46.7 49.68 47.17 49.33 47.66 49C48.15 48.68 48.65 48.38 49.17 48.1C49.69 47.82 50.22 47.57 50.76 47.35C51.3 47.12 51.85 46.93 52.41 46.76C52.97 46.59 53.54 46.44 54.12 46.33C54.69 46.22 55.27 46.13 55.86 46.08C56.44 46.02 57.03 45.99 57.61 46L62.35 46C62.46 46 62.56 46.01 62.67 46.03C62.77 46.05 62.87 46.08 62.97 46.12C63.07 46.16 63.17 46.21 63.25 46.27C63.34 46.33 63.43 46.4 63.5 46.47C63.58 46.55 63.64 46.63 63.7 46.72C63.76 46.81 63.81 46.9 63.85 47C63.89 47.1 63.93 47.2 63.95 47.31C63.97 47.41 63.98 47.52 63.98 47.62L63.98 52.39C63.98 52.98 63.95 53.56 63.9 54.15C63.84 54.73 63.76 55.31 63.64 55.89C63.53 56.46 63.39 57.03 63.22 57.59C63.05 58.15 62.85 58.71 62.63 59.25C62.4 59.79 62.15 60.32 61.87 60.84C61.6 61.35 61.3 61.86 60.97 62.34C60.64 62.83 60.29 63.3 59.92 63.75C59.55 64.21 59.15 64.64 58.74 65.05L54.68 69.11L53.72 75.83C53.66 76.26 53.53 76.68 53.33 77.07C53.13 77.46 52.88 77.81 52.57 78.12L51.41 79.28C51.36 79.34 51.3 79.39 51.23 79.44C51.17 79.49 51.11 79.54 51.04 79.58C50.98 79.63 50.91 79.67 50.84 79.71C50.77 79.74 50.69 79.78 50.62 79.81C50.55 79.84 50.47 79.87 50.4 79.89C50.32 79.91 50.24 79.93 50.16 79.95C50.08 79.96 50.01 79.97 49.93 79.98C49.85 79.99 49.77 79.99 49.69 79.99C49.61 79.99 49.53 79.99 49.45 79.98C49.37 79.97 49.29 79.96 49.21 79.95C49.13 79.93 49.06 79.91 48.98 79.89C48.9 79.87 48.83 79.84 48.75 79.81C48.68 79.78 48.61 79.74 48.54 79.71C48.47 79.67 48.4 79.63 48.33 79.58C48.27 79.54 48.2 79.49 48.14 79.44C48.08 79.39 48.02 79.34 47.96 79.28L30.72 62.01Z" fill="#29B8EF" fill-opacity="1.000000" fill-rule="nonzero"/>
			<path id="path" d="M51.77 62.45C51.64 62.45 51.5 62.44 51.37 62.43C51.24 62.42 51.11 62.4 50.98 62.37C50.85 62.35 50.72 62.31 50.59 62.28C50.46 62.24 50.34 62.19 50.21 62.14C50.09 62.09 49.97 62.03 49.85 61.97C49.73 61.91 49.62 61.84 49.51 61.76C49.4 61.69 49.29 61.61 49.19 61.53C49.09 61.44 48.99 61.35 48.89 61.26C48.8 61.16 48.71 61.07 48.63 60.96C48.54 60.86 48.46 60.75 48.39 60.64C48.31 60.53 48.24 60.42 48.18 60.3C48.12 60.18 48.06 60.06 48.01 59.94C47.96 59.82 47.92 59.69 47.88 59.56C47.84 59.44 47.81 59.31 47.78 59.18C47.75 59.04 47.73 58.91 47.72 58.78C47.71 58.65 47.7 58.51 47.7 58.38C47.7 58.25 47.71 58.12 47.72 57.98C47.73 57.85 47.75 57.72 47.78 57.59C47.81 57.46 47.84 57.33 47.88 57.2C47.92 57.07 47.96 56.95 48.01 56.82C48.06 56.7 48.12 56.58 48.18 56.46C48.24 56.35 48.31 56.23 48.39 56.12C48.46 56.01 48.54 55.9 48.63 55.8C48.71 55.7 48.8 55.6 48.89 55.5C48.99 55.41 49.09 55.32 49.19 55.24C49.29 55.15 49.4 55.07 49.51 55C49.62 54.92 49.73 54.86 49.85 54.79C49.97 54.73 50.09 54.67 50.21 54.62C50.34 54.57 50.46 54.53 50.59 54.49C50.72 54.45 50.85 54.42 50.98 54.39C51.11 54.36 51.24 54.35 51.37 54.33C51.5 54.32 51.64 54.31 51.77 54.31C51.9 54.31 52.04 54.32 52.17 54.33C52.3 54.35 52.43 54.36 52.56 54.39C52.7 54.42 52.82 54.45 52.95 54.49C53.08 54.53 53.2 54.57 53.33 54.62C53.45 54.67 53.57 54.73 53.69 54.79C53.81 54.86 53.92 54.92 54.03 55C54.14 55.07 54.25 55.15 54.35 55.24C54.45 55.32 54.55 55.41 54.65 55.5C54.74 55.6 54.83 55.7 54.92 55.8C55 55.9 55.08 56.01 55.15 56.12C55.23 56.23 55.3 56.35 55.36 56.46C55.42 56.58 55.48 56.7 55.53 56.82C55.58 56.95 55.63 57.07 55.66 57.2C55.7 57.33 55.74 57.46 55.76 57.59C55.79 57.72 55.81 57.85 55.82 57.98C55.83 58.12 55.84 58.25 55.84 58.38C55.84 58.51 55.83 58.65 55.82 58.78C55.81 58.91 55.79 59.04 55.76 59.18C55.74 59.31 55.7 59.44 55.66 59.56C55.63 59.69 55.58 59.82 55.53 59.94C55.48 60.06 55.42 60.18 55.36 60.3C55.3 60.42 55.23 60.53 55.15 60.64C55.08 60.75 55 60.86 54.92 60.96C54.83 61.07 54.74 61.16 54.65 61.26C54.55 61.35 54.45 61.44 54.35 61.53C54.25 61.61 54.14 61.69 54.03 61.76C53.92 61.84 53.81 61.91 53.69 61.97C53.57 62.03 53.45 62.09 53.33 62.14C53.2 62.19 53.08 62.24 52.95 62.28C52.82 62.31 52.7 62.35 52.56 62.37C52.43 62.4 52.3 62.42 52.17 62.43C52.04 62.44 51.9 62.45 51.77 62.45ZM51.77 55.94C51.69 55.94 51.61 55.94 51.53 55.95C51.45 55.96 51.37 55.97 51.29 55.99C51.22 56 51.14 56.02 51.06 56.05C50.99 56.07 50.91 56.1 50.84 56.13C50.76 56.16 50.69 56.19 50.62 56.23C50.55 56.27 50.48 56.31 50.41 56.35C50.35 56.4 50.28 56.44 50.22 56.49C50.16 56.54 50.1 56.6 50.04 56.66C49.99 56.71 49.93 56.77 49.88 56.83C49.83 56.89 49.78 56.96 49.74 57.03C49.7 57.09 49.65 57.16 49.62 57.23C49.58 57.3 49.55 57.37 49.51 57.45C49.48 57.52 49.46 57.6 49.43 57.67C49.41 57.75 49.39 57.83 49.38 57.91C49.36 57.98 49.35 58.06 49.34 58.14C49.33 58.22 49.33 58.3 49.33 58.38C49.33 58.46 49.33 58.54 49.34 58.62C49.35 58.7 49.36 58.78 49.38 58.86C49.39 58.94 49.41 59.01 49.43 59.09C49.46 59.17 49.48 59.24 49.51 59.32C49.55 59.39 49.58 59.46 49.62 59.53C49.65 59.6 49.7 59.67 49.74 59.74C49.78 59.8 49.83 59.87 49.88 59.93C49.93 59.99 49.99 60.05 50.04 60.11C50.1 60.16 50.16 60.22 50.22 60.27C50.28 60.32 50.35 60.37 50.41 60.41C50.48 60.46 50.55 60.5 50.62 60.53C50.69 60.57 50.76 60.61 50.84 60.64C50.91 60.67 50.99 60.69 51.06 60.72C51.14 60.74 51.22 60.76 51.29 60.78C51.37 60.79 51.45 60.8 51.53 60.81C51.61 60.82 51.69 60.82 51.77 60.82C51.85 60.82 51.93 60.82 52.01 60.81C52.09 60.8 52.17 60.79 52.25 60.78C52.33 60.76 52.4 60.74 52.48 60.72C52.56 60.69 52.63 60.67 52.7 60.64C52.78 60.61 52.85 60.57 52.92 60.53C52.99 60.5 53.06 60.46 53.13 60.41C53.19 60.37 53.26 60.32 53.32 60.27C53.38 60.22 53.44 60.16 53.5 60.11C53.55 60.05 53.61 59.99 53.66 59.93C53.71 59.87 53.76 59.8 53.8 59.74C53.84 59.67 53.89 59.6 53.92 59.53C53.96 59.46 54 59.39 54.03 59.32C54.06 59.24 54.08 59.17 54.11 59.09C54.13 59.01 54.15 58.94 54.17 58.86C54.18 58.78 54.19 58.7 54.2 58.62C54.21 58.54 54.21 58.46 54.21 58.38C54.21 58.3 54.21 58.22 54.2 58.14C54.19 58.06 54.18 57.98 54.17 57.91C54.15 57.83 54.13 57.75 54.11 57.67C54.08 57.6 54.06 57.52 54.03 57.45C54 57.37 53.96 57.3 53.92 57.23C53.89 57.16 53.84 57.09 53.8 57.03C53.76 56.96 53.71 56.89 53.66 56.83C53.61 56.77 53.55 56.71 53.5 56.66C53.44 56.6 53.38 56.54 53.32 56.49C53.26 56.44 53.19 56.4 53.13 56.35C53.06 56.31 52.99 56.27 52.92 56.23C52.85 56.19 52.78 56.16 52.7 56.13C52.63 56.1 52.56 56.07 52.48 56.05C52.4 56.02 52.33 56 52.25 55.99C52.17 55.97 52.09 55.96 52.01 55.95C51.93 55.94 51.85 55.94 51.77 55.94Z" fill="#218EBF" fill-opacity="1.000000" fill-rule="nonzero"/>
			<path id="path" d="M52.58 61.64C52.45 61.64 52.32 61.63 52.19 61.62C52.05 61.6 51.92 61.58 51.79 61.56C51.66 61.53 51.53 61.5 51.4 61.46C51.28 61.42 51.15 61.38 51.03 61.33C50.9 61.28 50.78 61.22 50.67 61.16C50.55 61.09 50.43 61.03 50.32 60.95C50.21 60.88 50.11 60.8 50 60.71C49.9 60.63 49.8 60.54 49.71 60.45C49.61 60.35 49.52 60.25 49.44 60.15C49.35 60.05 49.27 59.94 49.2 59.83C49.13 59.72 49.06 59.6 49 59.49C48.93 59.37 48.88 59.25 48.82 59.12C48.77 59 48.73 58.88 48.69 58.75C48.65 58.62 48.62 58.49 48.59 58.36C48.57 58.23 48.55 58.1 48.53 57.97C48.52 57.83 48.52 57.7 48.52 57.57C48.52 57.43 48.52 57.3 48.53 57.17C48.55 57.04 48.57 56.9 48.59 56.77C48.62 56.64 48.65 56.51 48.69 56.39C48.73 56.26 48.77 56.13 48.82 56.01C48.88 55.89 48.93 55.77 49 55.65C49.06 55.53 49.13 55.42 49.2 55.31C49.27 55.2 49.35 55.09 49.44 54.99C49.52 54.88 49.61 54.78 49.71 54.69C49.8 54.6 49.9 54.51 50 54.42C50.11 54.34 50.21 54.26 50.32 54.18C50.43 54.11 50.55 54.04 50.67 53.98C50.78 53.92 50.9 53.86 51.03 53.81C51.15 53.76 51.28 53.71 51.4 53.67C51.53 53.64 51.66 53.6 51.79 53.58C51.92 53.55 52.05 53.53 52.19 53.52C52.32 53.51 52.45 53.5 52.58 53.5C52.72 53.5 52.85 53.51 52.98 53.52C53.12 53.53 53.25 53.55 53.38 53.58C53.51 53.6 53.64 53.64 53.77 53.67C53.89 53.71 54.02 53.76 54.14 53.81C54.26 53.86 54.38 53.92 54.5 53.98C54.62 54.04 54.73 54.11 54.84 54.18C54.96 54.26 55.06 54.34 55.17 54.42C55.27 54.51 55.37 54.6 55.46 54.69C55.56 54.78 55.65 54.88 55.73 54.99C55.81 55.09 55.89 55.2 55.97 55.31C56.04 55.42 56.11 55.53 56.17 55.65C56.24 55.77 56.29 55.89 56.34 56.01C56.39 56.13 56.44 56.26 56.48 56.39C56.52 56.51 56.55 56.64 56.58 56.77C56.6 56.9 56.62 57.04 56.63 57.17C56.65 57.3 56.65 57.43 56.65 57.57C56.65 57.7 56.65 57.83 56.63 57.97C56.62 58.1 56.6 58.23 56.58 58.36C56.55 58.49 56.52 58.62 56.48 58.75C56.44 58.88 56.39 59 56.34 59.12C56.29 59.25 56.24 59.37 56.17 59.49C56.11 59.6 56.04 59.72 55.97 59.83C55.89 59.94 55.81 60.05 55.73 60.15C55.65 60.25 55.56 60.35 55.46 60.45C55.37 60.54 55.27 60.63 55.17 60.71C55.06 60.8 54.96 60.88 54.84 60.95C54.73 61.03 54.62 61.09 54.5 61.16C54.38 61.22 54.26 61.28 54.14 61.33C54.02 61.38 53.89 61.42 53.77 61.46C53.64 61.5 53.51 61.53 53.38 61.56C53.25 61.58 53.12 61.6 52.98 61.62C52.85 61.63 52.72 61.64 52.58 61.64ZM52.58 55.13C52.5 55.13 52.42 55.13 52.34 55.14C52.27 55.15 52.19 55.16 52.11 55.17C52.03 55.19 51.95 55.21 51.88 55.23C51.8 55.25 51.72 55.28 51.65 55.31C51.58 55.34 51.5 55.38 51.43 55.41C51.36 55.45 51.29 55.49 51.23 55.54C51.16 55.58 51.1 55.63 51.04 55.68C50.97 55.73 50.91 55.78 50.86 55.84C50.8 55.9 50.75 55.96 50.7 56.02C50.65 56.08 50.6 56.14 50.55 56.21C50.51 56.28 50.47 56.35 50.43 56.42C50.39 56.49 50.36 56.56 50.33 56.63C50.3 56.71 50.27 56.78 50.25 56.86C50.22 56.94 50.21 57.01 50.19 57.09C50.17 57.17 50.16 57.25 50.15 57.33C50.15 57.41 50.14 57.49 50.14 57.57C50.14 57.65 50.15 57.73 50.15 57.81C50.16 57.89 50.17 57.97 50.19 58.04C50.21 58.12 50.22 58.2 50.25 58.28C50.27 58.35 50.3 58.43 50.33 58.5C50.36 58.58 50.39 58.65 50.43 58.72C50.47 58.79 50.51 58.86 50.55 58.92C50.6 58.99 50.65 59.05 50.7 59.12C50.75 59.18 50.8 59.24 50.86 59.29C50.91 59.35 50.97 59.4 51.04 59.46C51.1 59.51 51.16 59.55 51.23 59.6C51.29 59.64 51.36 59.68 51.43 59.72C51.5 59.76 51.58 59.79 51.65 59.82C51.72 59.85 51.8 59.88 51.88 59.9C51.95 59.93 52.03 59.95 52.11 59.96C52.19 59.98 52.27 59.99 52.34 60C52.42 60.01 52.5 60.01 52.58 60.01C52.66 60.01 52.74 60.01 52.82 60C52.9 59.99 52.98 59.98 53.06 59.96C53.14 59.95 53.22 59.93 53.29 59.9C53.37 59.88 53.44 59.85 53.52 59.82C53.59 59.79 53.66 59.76 53.74 59.72C53.81 59.68 53.87 59.64 53.94 59.6C54.01 59.55 54.07 59.51 54.13 59.46C54.19 59.4 54.25 59.35 54.31 59.29C54.37 59.24 54.42 59.18 54.47 59.12C54.52 59.05 54.57 58.99 54.61 58.92C54.66 58.86 54.7 58.79 54.74 58.72C54.78 58.65 54.81 58.58 54.84 58.5C54.87 58.43 54.9 58.35 54.92 58.28C54.94 58.2 54.96 58.12 54.98 58.04C54.99 57.97 55.01 57.89 55.01 57.81C55.02 57.73 55.03 57.65 55.03 57.57C55.03 57.49 55.02 57.41 55.01 57.33C55.01 57.25 54.99 57.17 54.98 57.09C54.96 57.01 54.94 56.94 54.92 56.86C54.9 56.78 54.87 56.71 54.84 56.63C54.81 56.56 54.78 56.49 54.74 56.42C54.7 56.35 54.66 56.28 54.61 56.21C54.57 56.14 54.52 56.08 54.47 56.02C54.42 55.96 54.37 55.9 54.31 55.84C54.25 55.78 54.19 55.73 54.13 55.68C54.07 55.63 54.01 55.58 53.94 55.54C53.87 55.49 53.81 55.45 53.74 55.41C53.66 55.38 53.59 55.34 53.52 55.31C53.44 55.28 53.37 55.25 53.29 55.23C53.22 55.21 53.14 55.19 53.06 55.17C52.98 55.16 52.9 55.15 52.82 55.14C52.74 55.13 52.66 55.13 52.58 55.13Z" fill="#FFFFFF" fill-opacity="1.000000" fill-rule="nonzero"/>
		</g>
	</g>
</svg>
